inDegrees=no
num_controls=7
num_derivatives=13
num_iterations=101
num_multipliers=7
num_parameters=0
num_slacks=7
num_states=26
objective=0.425827
objective_accelerations=0.058940
objective_balance=0.001277
objective_effort=0.014764
objective_height=0.344920
objective_ligament=0.005926
solver_duration=1461.099875
status=Solve_Succeeded
success=true
DataType=double
version=3
OpenSimVersion=4.5
endheader
time	/jointset/ground_pelvis/pelvis_tilt/value	/jointset/ground_pelvis/pelvis_tx/value	/jointset/ground_pelvis/pelvis_ty/value	/jointset/hip_l/hip_flexion_l/value	/jointset/hip_l/hip_adduction_l/value	/jointset/hip_l/hip_rotation_l/value	/jointset/back/lumbar_extension/value	/jointset/patellofemoral_l/patellar_flexion_l/value	/jointset/knee_l/knee_flexion_l/value	/jointset/knee_l/knee_adduction_l/value	/jointset/knee_l/knee_rotation_l/value	/jointset/ankle_l/ankle_angle_l/value	/jointset/subtalar_l/subtalar_angle_l/value	/jointset/ground_pelvis/pelvis_tilt/speed	/jointset/ground_pelvis/pelvis_tx/speed	/jointset/ground_pelvis/pelvis_ty/speed	/jointset/hip_l/hip_flexion_l/speed	/jointset/hip_l/hip_adduction_l/speed	/jointset/hip_l/hip_rotation_l/speed	/jointset/back/lumbar_extension/speed	/jointset/patellofemoral_l/patellar_flexion_l/speed	/jointset/knee_l/knee_flexion_l/speed	/jointset/knee_l/knee_adduction_l/speed	/jointset/knee_l/knee_rotation_l/speed	/jointset/ankle_l/ankle_angle_l/speed	/jointset/subtalar_l/subtalar_angle_l/speed	/forceset/tau_hip_flexion_l	/forceset/tau_hip_adduction_l	/forceset/tau_hip_rotation_l	/forceset/tau_knee_flexion_l	/forceset/tau_ankle_angle_l	/forceset/tau_subtalar_angle_l	/forceset/tau_lumbar_extension	lambda_cid13_p0	lambda_cid13_p1	lambda_cid13_p2	lambda_cid13_p3	lambda_cid13_p4	lambda_cid13_p5	lambda_cid14_p0	/jointset/ground_pelvis/pelvis_tilt/accel	/jointset/ground_pelvis/pelvis_tx/accel	/jointset/ground_pelvis/pelvis_ty/accel	/jointset/hip_l/hip_flexion_l/accel	/jointset/hip_l/hip_adduction_l/accel	/jointset/hip_l/hip_rotation_l/accel	/jointset/back/lumbar_extension/accel	/jointset/patellofemoral_l/patellar_flexion_l/accel	/jointset/knee_l/knee_flexion_l/accel	/jointset/knee_l/knee_adduction_l/accel	/jointset/knee_l/knee_rotation_l/accel	/jointset/ankle_l/ankle_angle_l/accel	/jointset/subtalar_l/subtalar_angle_l/accel	gamma_cid13_p0	gamma_cid13_p1	gamma_cid13_p2	gamma_cid13_p3	gamma_cid13_p4	gamma_cid13_p5	gamma_cid14_p0
0.5	-0.2077823438412022	0.02990611673229293	0.7706400068650153	0.9894533908888498	-0.3615793061156538	-0.003674075826236232	-0.4008654720360185	0.9687718641576262	0.968771864157454	-0.02644681949499858	-0.1744265379762157	0.3167173007970995	0.1673578323937999	-0.7241931211110554	-0.1714028883055941	-0.5319195103387715	2.385631871775043	0.041873376275171	0.5265214199107638	-0.3065376880248125	2.0242912728863	2.024291272886467	0.3320919605547463	0.001072211158201279	0.5310463718592993	0.2825838876579739	-0.09702262302361343	0.04186612988092735	-0.002346675269831081	-0.2102239666327988	0.01768835633849182	0.006222308593242688	0.1123639867595449	-19.43412281174431	3.465567210206914	-3.991973341811527	-2.784150889279808	-439.1353356289339	-54.57087605542615	-4.549776831406779	0.2777725645812966	0.4488843216890334	-0.4852416216990398	-1.178286780292973	0.07966319094712174	-0.8223013524557636	1.405665257035305	-1.585381870907711	-1.585381870907632	-0.168562050067876	-0.01891001496706169	-0.8440365020768843	0.08457304979010986	-4.925058037328207e-07	1.486913145423245e-07	7.068499980897953e-06	4.488476306915073e-07	-1.383504312977431e-06	-9.296586151783854e-07	-8.31991197902119e-07
0.51	-0.2150082575882457	0.02821479240117098	0.76529789937189	1.013245805350508	-0.3611593179439687	0.001556979778904848	-0.4038614311393117	0.9889318454305884	0.9889318454303366	-0.02314502907419293	-0.1744162386405204	0.3219838403394102	0.1701831722186306	-0.7208799329447941	-0.1668443609258528	-0.5363776802616643	2.37252429247983	0.04212211824102004	0.5196596573443001	-0.292626714117157	2.007419115340717	2.00741911534088	0.3282471446565149	0.0009777857408413064	0.5221819069547582	0.2824323040221526	-0.1017714691715573	0.04303090509312908	-0.002798970705428123	-0.2125716993306513	0.01586565100572141	0.006652392912283769	0.1160011122177136	-20.20645829563466	3.550859535414269	-4.161885966324414	-2.511081121460611	-442.5030332896698	-54.57233685038918	-3.938784186480086	0.3745215284737918	0.4620724970528796	-0.4077298381132428	-1.42605643086445	-0.003942339535323872	-0.6234275451710047	1.387926235293136	-1.780847621914422	-1.780847621914955	-0.4951919592635071	-0.00483902386337267	-0.9195951155695351	-0.07367682067047335	-4.720213520031411e-07	4.874934142290422e-07	7.043428616669246e-06	4.88779833109391e-07	-1.324403891740522e-06	-5.307969292883905e-07	-8.115847580167636e-07
0.52	-0.2221977535364671	0.02656960045403339	0.7599148851474304	1.036897331433863	-0.3607371267604127	0.006718354991094772	-0.4067174579479971	1.008914562142993	1.008914562142656	-0.01988223693229262	-0.174406909602743	0.3271593465064897	0.1730052656570226	-0.7169095613455062	-0.1621764115087211	-0.5401008566056902	2.35745419611546	0.042313978649305	0.512585341320664	-0.2785512291029886	1.988838360773902	1.988838360774062	0.324292304775777	0.0008781515737640368	0.5128396968131425	0.2819346103702426	-0.1065203153195171	0.04419568030532462	-0.003251266141141477	-0.2149194320285069	0.01404294567295241	0.007082477231318967	0.119638237675867	-20.97330639229036	3.627239183864579	-4.321291064898017	-2.284744438064184	-445.7830629232405	-54.68958211301224	-3.377975268226074	0.4092092511867811	0.470768729167036	-0.3382429059256302	-1.570790194124438	0.06828687943430681	-0.864812043890221	1.43856747833793	-1.927101275154074	-1.927101275154107	-0.1905668465691796	-0.01995176491053272	-0.9395855494919589	0.01535104657234155	-4.474115750775408e-07	9.010561662523875e-07	7.009212723933002e-06	5.368017737223512e-07	-1.258908176541437e-06	-8.038397912516777e-08	-7.841846219113106e-07
0.53	-0.2293445492753757	0.02497161975283303	0.7544983380314518	1.060388760148482	-0.3603130134982198	0.01180857643421775	-0.4094318900754412	1.028703240461695	1.028703240461593	-0.01665962953203239	-0.1743981266320963	0.332239297969851	0.1758210449410005	-0.7123505927197931	-0.1574024138591952	-0.5430791629019623	2.340510087687448	0.04250528784028278	0.5054104920659097	-0.2643255486683249	1.968620531318173	1.968620531318324	0.3202210889969072	0.0008555379200734477	0.5030851318479763	0.2811701117794876	-0.1110346006488436	0.04487677535408528	-0.003535683349763345	-0.217893979591886	0.01280001676315446	0.007450304851379483	0.123092158959932	-21.57275155497695	3.724587484531654	-4.510590390849003	-2.1632916023522	-449.2503675681409	-54.9110964439048	-2.866140721056225	0.4940724680389425	0.483424918488989	-0.2584588395746951	-1.804485317381776	-0.00709137327473282	-0.6518167151496593	1.416015483807687	-2.110485569505175	-2.110485569506515	-0.5164471260833592	0.004523895690365876	-1.003175184089026	-0.1310316431881293	-4.058699167111791e-07	1.063453261627204e-06	6.574100219995008e-06	5.288968013192473e-07	-1.14414595147832e-06	2.200744865897397e-07	-7.267447412933989e-07
0.54	-0.2364427889680776	0.02342192095525638	0.7490558409828916	1.083701094948767	-0.3598873160065582	0.01682545031501669	-0.4120037759669845	1.0482814681281	1.048281468128226	-0.01347794392607921	-0.1743899817857259	0.3372197471407483	0.178627442972813	-0.7071983521030503	-0.1525200307839789	-0.5452908431220787	2.321635413249747	0.0426308245430911	0.4979158288558916	-0.2500419819225635	1.946748230313529	1.946748230313671	0.3161079459165415	0.0007505267179294217	0.4929392383204049	0.2800583599371848	-0.1155488859781858	0.04555787040284158	-0.003820100558545587	-0.220868527155269	0.01155708785335871	0.007818132471437492	0.1265460802439816	-22.16807390155115	3.814040467512992	-4.690433350131717	-2.087531992898063	-452.6519927108202	-55.24380953566448	-2.401909772184316	0.5278636493928401	0.4924458143050017	-0.1849176906944789	-1.956903396062443	0.05513238180041656	-0.9287748349429746	1.450144740557525	-2.257995584937137	-2.257995584937099	-0.19895230686838	-0.03643127460123334	-1.017851261973133	-0.05409960373725545	-3.455951129209959e-07	9.479649496461988e-07	5.695442529195498e-06	4.59115244302625e-07	-9.748760984805263e-07	3.546258631277856e-07	-6.360693986617028e-07
0.55	-0.2434867563327227	0.02192151373967168	0.743595053640704	1.106815494766598	-0.359460222797207	0.02176517669751507	-0.4144324952175965	1.067633077144607	1.067633077144959	-0.01033632791156342	-0.1743832053932164	0.342097044979109	0.1814216866927013	-0.701499922764332	-0.1475498017406034	-0.5467357797131148	2.300933845376304	0.04277124266458927	0.4901125101349947	-0.2357069636471143	1.923315123011511	1.923315123011616	0.3120786259279075	0.0006363931459675204	0.4824604008846171	0.2787169816901814	-0.1200242872908349	0.04636037008791961	-0.003937779202289534	-0.2239906676505711	0.01041066205737426	0.007835697983718935	0.1299271392361398	-22.77756329402349	4.097320231186489	-4.945987741064528	-1.928530309947846	-456.1331135538767	-55.2429021188042	-1.983810977935103	0.6050994574750226	0.5011372484793111	-0.1048313124074842	-2.173422493338859	-0.009832681990669112	-0.694187419091695	1.42441605409085	-2.424618477223161	-2.424618477228802	-0.5253200152630149	0.006878499384744526	-1.071862526218326	-0.1859299430562963	-2.505854664471808e-07	1.519119262131768e-07	3.881804357203475e-06	2.423389123248047e-07	-6.993207481311262e-07	-1.131667042610825e-08	-4.785100904445692e-07
0.5600000000000001	-0.2504708860277131	0.02047117397434559	0.7381237069987866	1.129713551103619	-0.3590323912485046	0.02662925448711875	-0.4167180171488448	1.086742625053217	1.086742625053797	-0.007239084731012423	-0.1743764137568518	0.3468677619347443	0.1842001620285446	-0.6952308181710506	-0.1425065407322585	-0.5474027030680921	2.278366717088717	0.04277849241348164	0.4827861102769516	-0.2214025180495627	1.898336008733933	1.898336008734	0.3072333791231912	0.0007535754891420409	0.4716230617753593	0.2769046831282015	-0.1244996886034991	0.04716286977298974	-0.004055457846072827	-0.2271128081458745	0.009264236261391287	0.007853263495991816	0.1333081982282827	-23.38581367707043	4.375318298290517	-5.194912725961463	-1.803250082055417	-459.5766287269461	-55.32823293029777	-1.610124586532316	0.6419987003055863	0.5070522072988193	-0.02931504348270526	-2.330015478891291	0.02849870727926632	-0.8333910623722293	1.444030204978035	-2.567196980049253	-2.5671969800493	-0.3621376700848617	0.009831908426035822	-1.08955159666721	-0.1482836667326078	-1.138940087530086e-07	-1.460818750962238e-06	9.461896077804744e-07	-1.508311496064471e-07	-2.962228009598023e-07	-9.778518960903104e-07	-2.406900235249132e-07
0.5700000000000001	-0.2573897648192945	0.01907157061418946	0.7326495843223018	1.152377080460649	-0.3586040061449462	0.0314130151784905	-0.4188605234099734	1.105594820297317	1.10559482029762	-0.004184585748006209	-0.1743708193492565	0.3515287972001524	0.1869601205600705	-0.6884581472294633	-0.1374053932369519	-0.547288992905657	2.254035260766417	0.04288213867448123	0.4740245239414275	-0.2071140231763585	1.871853491427257	1.871853491427201	0.3035590057431867	0.0004039133411036455	0.4605359265788447	0.2750175112253778	-0.1288828429647946	0.04766415284847817	-0.004175492416354909	-0.2303872144216365	0.008165729573783257	0.007948624471163646	0.1365896530176455	-23.97709883188979	4.605310187404321	-5.423335324251759	-1.666816472393371	-463.0883353586556	-55.54990580446316	-1.279168436354679	0.7079000890818309	0.5128820836504082	0.05162630299726949	-2.530311701192847	-0.0009109290465869431	-0.8889014781028157	1.41896577859834	-2.726190171650186	-2.726190171668602	-0.3865128848860211	-0.05180267947079957	-1.125616353163229	-0.2188998520243517	-3.716166481636863e-08	-2.29797428337935e-06	-6.550985183727858e-07	-3.621616975773082e-07	-6.795160023036086e-08	-1.477290152223883e-06	-1.083321676021626e-07
0.58	-0.2642383171418655	0.01772322594158693	0.7271805811988199	1.174788175055992	-0.3581750262816895	0.03611088819471321	-0.4208606033923498	1.124174708155217	1.124174708155243	-0.001170115641385147	-0.174367609043749	0.3560774967391918	0.1896992141925747	-0.6811655243680009	-0.1322548032215382	-0.5463787924675648	2.22787976475238	0.04289744435320795	0.4656085752474907	-0.1929172622988727	1.843874531493645	1.843874531493466	0.2992276038460734	0.0002767550709844378	0.4491559165015432	0.2727317033238705	-0.1332659973261071	0.04816543592395178	-0.004295526986667302	-0.2336616206974006	0.007067222886174231	0.008043985446314034	0.1398711078069918	-24.56924824426175	4.829068560409323	-5.643472674346486	-1.539052511298186	-466.6051577787602	-55.7994404254212	-0.9895313548657828	0.7459890842806807	0.5169407113201657	0.1299830116486714	-2.694823417238635	0.01083059082470158	-0.764263534054746	1.425683405834423	-2.866485505436622	-2.866485505436516	-0.4935433735066119	0.05433268400985743	-1.14812657282471	-0.2280108664693292	-3.851560856395416e-08	-2.125078464483358e-06	-5.186589491050453e-07	-3.36677994809064e-07	-6.736174370429391e-08	-1.368416075945492e-06	-1.13320446931191e-07
